<?xml version="1.0" encoding="UTF-8"?>
<svg version="1.1" xmlns="http://www.w3.org/2000/svg" width="31" height="31">
<path d="M0 0 C10.23 0 20.46 0 31 0 C31 10.23 31 20.46 31 31 C20.77 31 10.54 31 0 31 C0 20.77 0 10.54 0 0 Z " fill="#548A6B" transform="translate(0,0)"/>
<path d="M0 0 C10.23 0 20.46 0 31 0 C31 10.23 31 20.46 31 31 C20.77 31 10.54 31 0 31 C0 20.77 0 10.54 0 0 Z M8 4 C8 5.32 8 6.64 8 8 C7.67 7.67 7.34 7.34 7 7 C4.96758273 7.63979849 4.96758273 7.63979849 3 9 C2.18828772 11.55519921 2.18828772 11.55519921 2 14 C2.66 14 3.32 14 4 14 C4.33 15.98 4.66 17.96 5 20 C4.34 20 3.68 20 3 20 C3.88666064 23.98997287 4.38275154 25.59744666 7.875 27.875 C11.07370285 29.22581298 11.07370285 29.22581298 15 29 C15.33 28.34 15.66 27.68 16 27 C16 27.66 16 28.32 16 29 C19.23238414 28.92303847 21.33227795 28.62561345 23.734375 26.375 C25.21851673 24.62229929 26.63844334 22.84920638 28 21 C27.01 20.67 26.02 20.34 25 20 C25.33 18.02 25.66 16.04 26 14 C26.66 14 27.32 14 28 14 C27.34 12.02 26.68 10.04 26 8 C25.01 8.33 24.02 8.66 23 9 C23.33 8.67 23.66 8.34 24 8 C24 7.01 24 6.02 24 5 C19.02155978 3.00862391 13.05462732 1.47268634 8 4 Z " fill="#F7F9F7" transform="translate(0,0)"/>
<path d="M0 0 C1.65 0.33 3.3 0.66 5 1 C5 1.99 5 2.98 5 4 C6.65 4.33 8.3 4.66 10 5 C9.32829194 8.8063457 8.27253436 12.35206816 7 16 C3.7 16 0.4 16 -3 16 C-6.57142857 8.71428571 -6.57142857 8.71428571 -5 4 C-3.68 4 -2.36 4 -1 4 C-0.67 2.68 -0.34 1.36 0 0 Z " fill="#F1F6EC" transform="translate(13,7)"/>
<path d="M0 0 C0.763125 0.165 1.52625 0.33 2.3125 0.5 C5.03596236 1.09145396 5.03596236 1.09145396 8 1 C8.33 2.65 8.66 4.3 9 6 C8.34 6 7.68 6 7 6 C6.81824219 6.62648438 6.63648438 7.25296875 6.44921875 7.8984375 C6.19785156 8.71570312 5.94648438 9.53296875 5.6875 10.375 C5.44386719 11.18710937 5.20023438 11.99921875 4.94921875 12.8359375 C4 15 4 15 1 17 C-1.33199388 17.07905064 -3.66832622 17.08798769 -6 17 C-5.505 15.515 -5.505 15.515 -5 14 C-3.02 14 -1.04 14 1 14 C2.60642307 9.9366946 3.44504746 7.21472177 2 3 C1.34 2.67 0.68 2.34 0 2 C0 1.34 0 0.68 0 0 Z " fill="#558F6E" transform="translate(19,8)"/>
<path d="M0 0 C1.32 0.33 2.64 0.66 4 1 C4 1.66 4 2.32 4 3 C2.68 3 1.36 3 0 3 C0 3.99 0 4.98 0 6 C1.65 5.67 3.3 5.34 5 5 C5 5.66 5 6.32 5 7 C4.01 7.495 4.01 7.495 3 8 C3 8.99 3 9.98 3 11 C1.68 11 0.36 11 -1 11 C-1 9.35 -1 7.7 -1 6 C-1.99 6 -2.98 6 -4 6 C-4 5.34 -4 4.68 -4 4 C-3.01 4 -2.02 4 -1 4 C-0.67 2.68 -0.34 1.36 0 0 Z " fill="#6C967F" transform="translate(14,10)"/>
<path d="M0 0 C1.29550781 -0.02126953 1.29550781 -0.02126953 2.6171875 -0.04296875 C5.2491288 0.19890748 6.86480544 0.85766459 9.125 2.1875 C8.795 3.1775 8.465 4.1675 8.125 5.1875 C7.56039063 5.0225 6.99578125 4.8575 6.4140625 4.6875 C4.01576612 4.16364004 1.94907095 4.12197302 -0.5 4.1875 C-4.65417981 4.29791009 -4.65417981 4.29791009 -6.875 3.1875 C-6.875 2.5275 -6.875 1.8675 -6.875 1.1875 C-4.42528376 -0.03735812 -2.73265539 0.02027192 0 0 Z " fill="#A0B5A4" transform="translate(14.875,2.8125)"/>
<path d="M0 0 C3.3114019 0.57093136 4.75054423 1.54604826 7 4 C7.66 4.33 8.32 4.66 9 5 C9 5.66 9 6.32 9 7 C9.99 7 10.98 7 12 7 C12 7.66 12 8.32 12 9 C4.66666667 8 4.66666667 8 2 6 C0.75 2.875 0.75 2.875 0 0 Z " fill="#A3B4AB" transform="translate(3,20)"/>
<path d="M0 0 C1.32 0.66 2.64 1.32 4 2 C-0.93654267 8.70459519 -0.93654267 8.70459519 -5.375 9.9375 C-6.24125 9.958125 -7.1075 9.97875 -8 10 C-6.58226538 6.45566346 -5.32387762 5.66193881 -2 4 C-0.73195434 1.9664052 -0.73195434 1.9664052 0 0 Z " fill="#A4B5A6" transform="translate(24,19)"/>
<path d="M0 0 C0 1.65 0 3.3 0 5 C3.465 4.505 3.465 4.505 7 4 C7 4.99 7 5.98 7 7 C5.35425434 7.02688151 3.70838587 7.04634123 2.0625 7.0625 C1.14597656 7.07410156 0.22945312 7.08570313 -0.71484375 7.09765625 C-3 7 -3 7 -4 6 C-4.04063832 4.33382885 -4.042721 2.66611905 -4 1 C-2 0 -2 0 0 0 Z " fill="#F7FBF2" transform="translate(13,16)"/>
<path d="M0 0 C1.65 0 3.3 0 5 0 C4.67 0.99 4.34 1.98 4 3 C4.99 3.33 5.98 3.66 7 4 C6 5 6 5 3.93359375 5.09765625 C3.10988281 5.08605469 2.28617188 5.07445312 1.4375 5.0625 C0.61121094 5.05347656 -0.21507812 5.04445313 -1.06640625 5.03515625 C-1.70449219 5.02355469 -2.34257812 5.01195312 -3 5 C-3.33 3.68 -3.66 2.36 -4 1 C-1.69 1.66 0.62 2.32 3 3 C3 2.34 3 1.68 3 1 C2.01 0.67 1.02 0.34 0 0 Z " fill="#F2F7F1" transform="translate(12,26)"/>
<path d="M0 0 C0.33 0 0.66 0 1 0 C1 2.64 1 5.28 1 8 C-0.9375 7.25 -0.9375 7.25 -3 6 C-3.75 3.875 -3.75 3.875 -4 2 C-2.68 2 -1.36 2 0 2 C0 1.34 0 0.68 0 0 Z " fill="#EBF5EC" transform="translate(4,12)"/>
<path d="M0 0 C2.31 0.33 4.62 0.66 7 1 C6.67 2.65 6.34 4.3 6 6 C4.68 5.67 3.36 5.34 2 5 C2.99 4.67 3.98 4.34 5 4 C5 3.34 5 2.68 5 2 C3.35 2.33 1.7 2.66 0 3 C0 2.01 0 1.02 0 0 Z " fill="#E3F3EC" transform="translate(14,13)"/>
<path d="M0 0 C0.66 0.33 1.32 0.66 2 1 C1.67 2.32 1.34 3.64 1 5 C0.34 5 -0.32 5 -1 5 C-1 5.66 -1 6.32 -1 7 C-1.66 7 -2.32 7 -3 7 C-2.25 2.25 -2.25 2.25 0 0 Z " fill="#99A89A" transform="translate(5,7)"/>
<path d="M0 0 C1.32 0.33 2.64 0.66 4 1 C3.67 2.65 3.34 4.3 3 6 C2.01 5.34 1.02 4.68 0 4 C0 2.68 0 1.36 0 0 Z " fill="#35865A" transform="translate(5,16)"/>
</svg>
